<?xml version="1.0" encoding="iso-8859-1"?>
<!-- Generator: Adobe Illustrator 19.0.0, SVG Export Plug-In . SVG Version: 6.00 Build 0)  -->
<svg version="1.1" id="Capa_1" xmlns="http://www.w3.org/2000/svg" xmlns:xlink="http://www.w3.org/1999/xlink" x="0px" y="0px"
	 viewBox="0 0 512 512" style="enable-background:new 0 0 512 512;" xml:space="preserve">
<g>
	<g>
		<g>
			<path d="M373.333,362.667H138.667c-5.896,0-10.667,4.771-10.667,10.667c0,5.896,4.771,10.667,10.667,10.667h234.667
				c5.896,0,10.667-4.771,10.667-10.667C384,367.438,379.229,362.667,373.333,362.667z"/>
			<path d="M330.667,426.667H181.333c-5.896,0-10.667,4.771-10.667,10.667c0,5.896,4.771,10.667,10.667,10.667h149.333
				c5.896,0,10.667-4.771,10.667-10.667C341.333,431.438,336.563,426.667,330.667,426.667z"/>
			<path d="M256,64c-70.583,0-128,57.417-128,128s57.417,128,128,128s128-57.417,128-128S326.583,64,256,64z M150.411,202.667
				h52.448c1.102,34.233,7.534,67.527,18.982,89.881C183.109,279.335,154.668,244.71,150.411,202.667z M202.859,181.333h-52.448
				c4.257-42.043,32.698-76.668,71.43-89.881C210.393,113.806,203.961,147.1,202.859,181.333z M256,298.667
				c-12.001,0-29.582-38.018-31.604-96h63.208C285.582,260.648,268.001,298.667,256,298.667z M224.396,181.333
				c2.022-57.982,19.603-96,31.604-96s29.582,38.018,31.604,96H224.396z M290.159,292.548c11.448-22.354,17.88-55.648,18.982-89.881
				h52.448C357.332,244.71,328.891,279.335,290.159,292.548z M309.141,181.333c-1.102-34.233-7.534-67.527-18.982-89.881
				c38.732,13.214,67.173,47.839,71.43,89.881H309.141z"/>
			<path d="M405.333,0H106.667C83.135,0,64,19.135,64,42.667v426.667C64,492.865,83.135,512,106.667,512h298.667
				C428.865,512,448,492.865,448,469.333V42.667C448,19.135,428.865,0,405.333,0z M426.667,469.333
				c0,11.76-9.573,21.333-21.333,21.333H106.667c-11.76,0-21.333-9.573-21.333-21.333V42.667c0-11.76,9.573-21.333,21.333-21.333
				h298.667c11.76,0,21.333,9.573,21.333,21.333V469.333z"/>
		</g>
	</g>
</g>
<g>
</g>
<g>
</g>
<g>
</g>
<g>
</g>
<g>
</g>
<g>
</g>
<g>
</g>
<g>
</g>
<g>
</g>
<g>
</g>
<g>
</g>
<g>
</g>
<g>
</g>
<g>
</g>
<g>
</g>
</svg>
