<?xml version="1.0" encoding="iso-8859-1"?>
<!-- Generator: Adobe Illustrator 19.0.0, SVG Export Plug-In . SVG Version: 6.00 Build 0)  -->
<svg version="1.1" id="Capa_1" xmlns="http://www.w3.org/2000/svg" xmlns:xlink="http://www.w3.org/1999/xlink" x="0px" y="0px"
	 viewBox="0 0 512 512" style="enable-background:new 0 0 512 512;" xml:space="preserve">
<g>
	<g>
		<path d="M509.396,387.677L270.115,111.593l25.948-29.938c3.854-4.458,3.375-11.188-1.073-15.052
			c-4.448-3.844-11.188-3.385-15.052,1.073L256,95.302l-23.938-27.625c-3.875-4.458-10.604-4.917-15.052-1.073
			c-4.448,3.865-4.927,10.594-1.073,15.052l25.948,29.938L2.604,387.677C0.927,389.625,0,392.104,0,394.666v42.667
			C0,443.229,4.771,448,10.667,448h490.667c5.896,0,10.667-4.771,10.667-10.667v-42.667
			C512,392.104,511.073,389.625,509.396,387.677z M384,426.666H128v-28.208l128-157.542l128,157.542V426.666z M490.667,426.666
			h-85.333v-32c0-2.448-0.844-4.823-2.385-6.729L264.281,217.27c-4.063-4.979-12.5-4.979-16.563,0L109.052,387.937
			c-1.542,1.906-2.385,4.281-2.385,6.729v32H21.333v-28.021L256,127.875l234.667,270.771V426.666z"/>
	</g>
</g>
<g>
</g>
<g>
</g>
<g>
</g>
<g>
</g>
<g>
</g>
<g>
</g>
<g>
</g>
<g>
</g>
<g>
</g>
<g>
</g>
<g>
</g>
<g>
</g>
<g>
</g>
<g>
</g>
<g>
</g>
</svg>
