<?xml version="1.0" encoding="iso-8859-1"?>
<!-- Generator: Adobe Illustrator 19.0.0, SVG Export Plug-In . SVG Version: 6.00 Build 0)  -->
<svg version="1.1" id="Layer_1" xmlns="http://www.w3.org/2000/svg" xmlns:xlink="http://www.w3.org/1999/xlink" x="0px" y="0px"
	 viewBox="0 0 511.998 511.998" style="enable-background:new 0 0 511.998 511.998;" xml:space="preserve">
<g>
	<g>
		<path d="M467.334,219.758c-16.299-44.305-46.74-75.135-85.718-86.809c0-0.001,0-0.001,0-0.001
			c-37.578-11.252-78.424-3.123-114.903,22.232c-2.768-13.659-7.783-26.511-14.634-38.16c18.79-2.022,36.713-10.326,50.436-24.048
			c21.111-21.112,29.431-52.154,21.717-81.014c-1.191-4.455-4.672-7.935-9.127-9.125c-28.858-7.721-59.901,0.605-81.014,21.715
			c-13.499,13.5-21.758,31.063-23.949,49.517c-19.049-11.829-41.502-18.672-65.527-18.672c-7.122,0-12.894,5.773-12.894,12.894
			c0,7.122,5.773,12.894,12.894,12.894c44.176,0,81.666,29.149,94.264,69.221c-34.807-21.991-73.08-28.587-108.498-17.982
			c-38.977,11.675-69.419,42.505-85.718,86.81c-15.821,43.007-16.399,93.849-1.63,143.163c14.77,49.314,43.201,91.47,80.057,118.699
			c37.97,28.054,80.347,37.074,119.326,25.399c4.397-1.316,8.745-2.908,12.987-4.749c4.63,2.072,9.377,3.841,14.177,5.278
			c11.121,3.332,22.519,4.977,34.013,4.977c28.788,0,58.175-10.328,85.312-30.377c36.857-27.229,65.288-69.386,80.058-118.7
			C483.733,313.607,483.154,262.764,467.334,219.758z M235.792,91.271c-2.251-17.682,3.76-35.714,16.534-48.488
			c12.776-12.774,30.807-18.788,48.489-16.536c2.251,17.685-3.761,35.714-16.536,48.488
			C271.505,87.509,253.472,93.523,235.792,91.271z M444.258,355.522c-13.179,44.005-38.278,81.421-70.675,105.357
			c-31.283,23.111-65.592,30.727-96.602,21.436c-5.32-1.592-10.567-3.712-15.596-6.302c-1.852-0.952-3.876-1.429-5.9-1.429
			c-1.978,0-3.957,0.455-5.774,1.365c-4.728,2.369-9.672,4.332-14.693,5.836c-65.426,19.601-140.47-37.283-167.278-126.793
			c-26.809-89.509,4.612-178.273,70.042-197.869c35.644-10.673,75.668,1.11,109.808,32.333c0,0,0,0.001,0.001,0.001
			c2.295,2.108,5.347,3.405,8.709,3.405c3.569,0,6.798-1.451,9.133-3.792c33.911-30.52,73.53-41.978,108.786-31.417v-0.001
			C439.646,177.249,471.067,266.014,444.258,355.522z"/>
	</g>
</g>
<g>
	<g>
		<path d="M158.616,181.75c-2.042-6.822-9.23-10.696-16.051-8.652c-27.514,8.241-49.467,32.772-60.231,67.305
			c-10.362,33.243-9.872,72.239,1.378,109.805c1.674,5.588,6.798,9.199,12.348,9.199c1.225,0,2.471-0.177,3.705-0.545
			c6.821-2.044,10.696-9.23,8.652-16.052c-9.65-32.223-10.183-66.752-1.462-94.732c8.29-26.596,23.563-44.451,43.009-50.275
			C156.785,195.759,160.66,188.573,158.616,181.75z"/>
	</g>
</g>
<g>
</g>
<g>
</g>
<g>
</g>
<g>
</g>
<g>
</g>
<g>
</g>
<g>
</g>
<g>
</g>
<g>
</g>
<g>
</g>
<g>
</g>
<g>
</g>
<g>
</g>
<g>
</g>
<g>
</g>
</svg>
