<?xml version="1.0" encoding="iso-8859-1"?>
<!-- Generator: Adobe Illustrator 17.1.0, SVG Export Plug-In . SVG Version: 6.00 Build 0)  -->
<!DOCTYPE svg PUBLIC "-//W3C//DTD SVG 1.1//EN" "http://www.w3.org/Graphics/SVG/1.1/DTD/svg11.dtd">
<svg version="1.1" id="Capa_1" xmlns="http://www.w3.org/2000/svg" xmlns:xlink="http://www.w3.org/1999/xlink" x="0px" y="0px"
	 viewBox="0 0 454.322 454.322" style="enable-background:new 0 0 454.322 454.322;" xml:space="preserve">
<g>
	<circle cx="243.664" cy="162.063" r="6.599"/>
	<path d="M413.787,170.514c-1.407-1.642-2.872-3.223-4.36-4.778c-0.417-0.498-0.831-0.988-1.236-1.461
		c-0.316-0.369-0.68-0.666-1.062-0.93c3.708-3.246,7.508-6.39,11.261-9.483c1.523-1.256,3.044-2.51,4.555-3.767
		c2.335-1.943,2.652-5.411,0.709-7.746c-1.944-2.334-5.413-2.652-7.746-0.709c-1.497,1.246-3.005,2.489-4.516,3.734
		c-4.113,3.391-8.282,6.842-12.361,10.443c-4.082-3.604-8.252-7.056-12.367-10.447c-1.509-1.244-3.015-2.485-4.511-3.73
		c-2.336-1.942-5.803-1.625-7.746,0.709c-1.943,2.335-1.625,5.804,0.71,7.746c1.509,1.256,3.028,2.509,4.551,3.763
		c1.089,0.897,2.183,1.8,3.277,2.706H276.268c-4.75-22.251-24.554-38.992-48.201-38.992c-27.179,0-49.29,22.112-49.29,49.291
		c0,15.791,7.473,29.861,19.059,38.889H41.854c0.334-6.818,1.223-11.205,1.249-11.332c0.64-2.969-1.249-5.895-4.218-6.535
		c-2.971-0.641-5.896,1.249-6.535,4.219c-0.129,0.601-1.203,5.793-1.576,13.648H7.313c-2.591,0-4.831,1.809-5.377,4.342
		c-0.437,2.027-10.362,50.091,19.356,86.896c21.304,26.384,57.146,39.762,106.529,39.762c48.618,0,84.026-13.353,105.241-39.688
		c26.897-33.389,21.986-76.441,20.093-87.797c5.708-3.391,10.677-7.896,14.602-13.221c10.59,4.625,22.417,6.935,35.237,6.935
		c16.366,0,34.35-3.764,53.435-11.279c5.977-2.354,11.583-4.88,16.7-7.392c-14.748,19.555-29.389,45.39-29.39,74.934
		c0,57.029,54.143,57.69,54.69,57.69c0.203,0,0.403-0.013,0.6-0.034c0.197,0.021,0.397,0.034,0.6,0.034
		c0.547,0,54.69-0.66,54.69-57.69C454.322,222.106,431.188,190.818,413.787,170.514z M399.393,225.55
		c-0.083,0-0.165,0.01-0.247,0.014c-0.092-0.004-0.182-0.014-0.275-0.014c-0.043,0-4.481-0.102-8.74-2.36
		c-5.648-2.997-8.395-8.281-8.395-16.155c0-10.979,5.313-22.292,16.719-35.602c0.029-0.033,0.046-0.072,0.074-0.106
		c0.165-0.165,0.336-0.324,0.501-0.488c0.714,0.707,1.411,1.427,2.105,2.147c10.5,12.639,15.42,23.5,15.421,34.049
		c0,7.735-2.648,12.967-8.097,15.993C404.12,225.438,399.531,225.548,399.393,225.55z M224.44,290.233
		c-19.032,23.567-51.539,35.518-96.618,35.518c-45.846,0-78.787-11.977-97.909-35.596c-21.595-26.674-19.463-61.359-17.909-73.404
		H30.79c0.766,15.175,4.892,34.894,18.619,51.895c18.761,23.234,50.274,35.016,93.664,35.016c3.038,0,5.5-2.463,5.5-5.5
		s-2.462-5.5-5.5-5.5c-39.852,0-68.464-10.38-85.044-30.851c-11.714-14.464-15.363-31.655-16.129-45.06h201.121
		C244.546,231.683,245.023,264.744,224.44,290.233z M228.067,205.153c-21.113,0-38.29-17.178-38.29-38.291
		s17.177-38.291,38.29-38.291c21.114,0,38.291,17.178,38.291,38.291S249.181,205.153,228.067,205.153z M273.29,186.446
		c2.523-5.804,3.956-12.184,4.05-18.883h103.789C357.252,181.144,310.884,202.101,273.29,186.446z M399.621,305.933
		c-0.2,0-0.396,0.013-0.59,0.034c-0.197-0.021-0.396-0.034-0.599-0.034c-0.109,0-11.056-0.067-22.018-5.883
		c-14.381-7.628-21.672-21.357-21.672-40.807c0-16.704,5.171-33.593,16.009-51.738c0.306,28.699,27.84,29.045,28.12,29.045
		c0.093,0,0.184-0.01,0.276-0.014c0.092,0.004,0.183,0.014,0.276,0.014c0.278,0,27.564-0.35,28.109-28.669
		c10.685,18.003,15.789,34.774,15.789,51.362C443.322,305.135,401.458,305.922,399.621,305.933z"/>
</g>
<g>
</g>
<g>
</g>
<g>
</g>
<g>
</g>
<g>
</g>
<g>
</g>
<g>
</g>
<g>
</g>
<g>
</g>
<g>
</g>
<g>
</g>
<g>
</g>
<g>
</g>
<g>
</g>
<g>
</g>
</svg>
