<?xml version="1.0" encoding="iso-8859-1"?>
<!-- Generator: Adobe Illustrator 18.1.1, SVG Export Plug-In . SVG Version: 6.00 Build 0)  -->
<svg version="1.1" id="Capa_1" xmlns="http://www.w3.org/2000/svg" xmlns:xlink="http://www.w3.org/1999/xlink" x="0px" y="0px"
	 viewBox="0 0 404.16 404.16" style="enable-background:new 0 0 404.16 404.16;" xml:space="preserve">
<g>
	<path style="fill:#010002;" d="M234.514,374.811c0,4.495,3.642,8.129,8.129,8.129h122.595c4.487,0,8.129-3.633,8.129-8.129V214.394
		c0-4.495-3.642-8.129-8.129-8.129s-8.129,3.633-8.129,8.129v152.289H250.771v-84.838c0-4.495-3.642-8.129-8.129-8.129h-79.758
		c-4.487,0-8.129,3.633-8.129,8.129v86.667H47.053V203.445c0-4.495-3.642-8.129-8.129-8.129s-8.129,3.633-8.129,8.129V376.64
		c0,4.495,3.642,8.129,8.129,8.129h123.961c4.487,0,8.129-3.633,8.129-8.129v-86.667h63.5V374.811z"/>
	<path style="fill:#010002;" d="M401.15,178.904L206.487,21.21c-2.951-2.398-7.161-2.43-10.144-0.065L3.101,173.377
		c-3.528,2.78-4.137,7.885-1.357,11.413c2.78,3.52,7.901,4.137,11.413,1.349L201.292,37.931l189.623,153.598
		c1.504,1.211,3.316,1.813,5.113,1.813c2.365,0,4.715-1.032,6.316-3.008C405.173,186.846,404.637,181.725,401.15,178.904z"/>
</g>
<g>
</g>
<g>
</g>
<g>
</g>
<g>
</g>
<g>
</g>
<g>
</g>
<g>
</g>
<g>
</g>
<g>
</g>
<g>
</g>
<g>
</g>
<g>
</g>
<g>
</g>
<g>
</g>
<g>
</g>
</svg>
